<?xml version="1.0" encoding="UTF-8" standalone="no"?>
<!-- Created with Inkscape (http://www.inkscape.org/) -->

<svg
   xmlns:dc="http://purl.org/dc/elements/1.1/"
   xmlns:cc="http://creativecommons.org/ns#"
   xmlns:rdf="http://www.w3.org/1999/02/22-rdf-syntax-ns#"
   xmlns:svg="http://www.w3.org/2000/svg"
   xmlns="http://www.w3.org/2000/svg"
   xmlns:sodipodi="http://sodipodi.sourceforge.net/DTD/sodipodi-0.dtd"
   xmlns:inkscape="http://www.inkscape.org/namespaces/inkscape"
   width="210mm"
   height="297mm"
   viewBox="0 0 744.09448819 1052.3622047"
   id="svg2"
   version="1.1"
   inkscape:version="0.91 r13725"
   sodipodi:docname="robot2.svg">
  <defs
     id="defs4">
		
	</defs>
  <sodipodi:namedview
     id="base"
     pagecolor="#ffffff"
     bordercolor="#666666"
     borderopacity="1.0"
     inkscape:pageopacity="0.0"
     inkscape:pageshadow="2"
     inkscape:zoom="0.35"
     inkscape:cx="45"
     inkscape:cy="402.85714"
     inkscape:document-units="px"
     inkscape:current-layer="layer1"
     showgrid="false"
     inkscape:window-width="1366"
     inkscape:window-height="715"
     inkscape:window-x="-8"
     inkscape:window-y="-8"
     inkscape:window-maximized="1" />
  <metadata
     id="metadata7">
    <rdf:RDF>
      <cc:Work
         rdf:about="">
        <dc:format>image/svg+xml</dc:format>
        <dc:type
           rdf:resource="http://purl.org/dc/dcmitype/StillImage" />
        <dc:title></dc:title>
      </cc:Work>
    </rdf:RDF>
  </metadata>
  <g
     inkscape:label="Layer 1"
     inkscape:groupmode="layer"
     id="layer1">
    <path
       d="m 390.24228,229.04181 c -7.48015,-0.98149 -14.28028,2.29014 -18.13369,7.6338 -3.85341,-5.34366 -10.76686,-8.61529 -18.247,-7.52474 -8.2735,1.19959 -14.84696,7.8519 -15.75365,15.81286 -1.24668,10.90542 7.70682,20.06597 18.70036,20.06597 0.45335,0 0.90668,0 1.36003,-0.10911 l 10.2002,0 0.1133,18.64828 8.27348,0 -0.11329,-18.64828 9.74685,0 c 0.45335,0 0.90668,0.10911 1.36002,0.10911 11.10688,-0.10911 19.83372,-9.37866 18.47369,-20.17502 -1.02002,-8.07002 -7.70682,-14.61328 -15.9803,-15.81287 z m -43.86084,19.84786 c -1.2467,-6.8704 4.87342,-12.86839 12.1269,-11.77784 4.30674,0.65432 7.93348,4.03499 8.6135,8.17905 1.24669,6.87043 -4.87342,12.86841 -12.1269,11.77786 -4.30676,-0.65432 -7.93349,-4.03501 -8.6135,-8.17907 z m 42.95415,8.07002 c -7.14014,1.1996 -13.37359,-4.68933 -12.24023,-11.66881 0.68001,-4.14406 4.19341,-7.63379 8.50016,-8.28811 7.14014,-1.1996 13.3736,4.68933 12.24023,11.6688 -0.56667,4.14406 -4.08007,7.52475 -8.50016,8.28812 z"
       id="toptwo"
       inkscape:connector-curvature="0"
       style="fill:#517c6b" />
    <path
       d="m 446.00334,461.65448 c 0,6.6523 -5.66677,12.10503 -12.58024,12.10503 l -121.949,0 c -6.91346,0 -12.58023,-5.45273 -12.58023,-12.10503 l 0,-68.70416 c 0,-6.65231 5.66677,-12.10502 12.58023,-12.10502 l 121.949,0 c 6.91347,0 12.58024,5.45271 12.58024,12.10502 l 0,68.70416 z"
       id="body"
       inkscape:connector-curvature="0"
       style="fill:#7aaf96" />
    <ellipse
       ry="8.3971758"
       rx="11.673555"
       cy="288.91257"
       cx="371.88193"
       id="topone"
       style="fill:#517c6b" />
    <path
       d="m 289.82703,423.4855 c 0,2.6173 -2.15337,4.68933 -4.87343,4.68933 l 0,0 c -2.72005,0 -4.87343,-2.07203 -4.87343,-4.68933 l 0,-27.59072 c 0,-2.61729 2.15338,-4.68934 4.87343,-4.68934 l 0,0 c 2.72006,0 4.87343,2.07205 4.87343,4.68934 l 0,27.59072 z"
       id="lhtwo"
       inkscape:connector-curvature="0"
       style="fill:#d58455" />
    <path
       d="m 289.82703,472.99611 c 0,2.61732 -2.15337,4.68934 -4.87343,4.68934 l 0,0 c -2.72005,0 -4.87343,-2.07202 -4.87343,-4.68934 l 0,-27.59071 c 0,-2.61731 2.15338,-4.68932 4.87343,-4.68932 l 0,0 c 2.72006,0 4.87343,2.07201 4.87343,4.68932 l 0,27.59071 z"
       id="lhfour"
       inkscape:connector-curvature="0"
       style="fill:#d58455" />
    <ellipse
       cy="433.84564"
       cx="284.27359"
       id="lhthree"
       style="fill:#463023"
       rx="6.8001289"
       ry="6.5432534" />
    <path
       d="m 274.30006,479.32127 c 0,0 -0.22668,-14.83138 9.18018,-14.83138 9.40685,0 11.78689,7.08853 11.78689,16.46719 0,0 -0.90668,3.38067 -3.28673,3.38067 -2.38004,0 0.22667,-6.32513 -1.47336,-7.96095 -1.70003,-1.63582 -3.5134,1.96297 -3.5134,6.32515 0,4.47122 -5.32676,3.59878 -8.95351,3.59878 -3.62674,0 -3.74007,-1.85392 -3.74007,-6.97946 z"
       id="lhfive"
       inkscape:connector-curvature="0"
       style="fill:#80b0a5" />
    <path
       d="m 298.55387,406.47304 c 0,2.50824 -2.04004,4.47123 -4.64676,4.47123 l 0,0 c -2.60672,0 -4.64676,-1.96299 -4.64676,-4.47123 l 0,-12.32313 c 0,-2.50825 2.15337,-4.47122 4.64676,-4.47122 l 0,0 c 2.60672,0 4.64676,2.07202 4.64676,4.47122 l 0,12.32313 z"
       id="lhone"
       inkscape:connector-curvature="0"
       style="fill:#c85449" />
    <rect
       height="86.370941"
       width="122.51567"
       y="287.60394"
       x="309.43405"
       id="head"
       style="fill:#7aaf96" />
    <g
       id="meter"
       transform="matrix(1.1333549,0,0,1.0905423,-71.25984,100.68499)">
			<path
   id="path3351"
   d="m 367.7,300.5 c -0.1,-0.2 -2.2,-2.8 -0.6,-6 l 0.2,-0.5 c 1.9,-3.9 6.3,-13.1 22.2,-13.3 l 0.4,0 c 15.9,0.1 20.3,9.3 22.2,13.3 l 0.2,0.5 c 1.6,3.2 -0.5,5.8 -0.6,5.9 l -7.8,11.1 -14.3,0 -14.3,0 -7.6,-11 z"
   inkscape:connector-curvature="0"
   style="fill:#533726" />

			<path
   id="path3353"
   d="m 389.7,281.7 0.2,0 c 15.2,0.1 19.3,8.6 21.3,12.7 l 0.2,0.5 c 1.3,2.6 -0.4,4.8 -0.4,4.9 l 0,0.1 0,0.1 -7.4,10.7 -13.8,0 -13.8,0 -7.4,-10.7 0,-0.1 0,-0.1 c 0,0 -1.7,-2.2 -0.4,-4.9 l 0.2,-0.5 c 2,-4.1 6.1,-12.6 21.3,-12.7 l 0,0 m 0.2,-2 c -0.1,0 -0.1,0 -0.2,0 -0.1,0 -0.1,0 -0.2,0 l 0,0 c -17.2,0.2 -21.5,10.6 -23.3,14.3 -1.9,3.8 0.7,7 0.7,7 l 8,11.5 14.8,0 14.8,0 8,-11.5 c 0,0 2.6,-3.2 0.7,-7 -1.8,-3.7 -6.1,-14.1 -23.3,-14.3 l 0,0 0,0 z"
   inkscape:connector-curvature="0"
   style="fill:#e7c264" />

		</g>
    <polyline
       points="385.6,309.7 381.8,295.3 393.3,309.8   "
       id="needle"
       style="fill:#e7c264"
       transform="matrix(1.1333549,0,0,1.0905423,-71.25984,100.68499)" />
    <rect
       height="83.862701"
       width="28.220537"
       y="478.77603"
       x="320.99429"
       id="llone"
       style="fill:#537e70" />
    <path
       d="m 417.32946,324.68237 c 0,6.65231 -5.66677,12.10502 -12.58024,12.10502 l -68.79465,0 c -6.91346,0 -12.58023,-5.45271 -12.58023,-12.10502 l 0,-4.25311 c 0,-6.65231 5.66677,-12.10503 12.58023,-12.10503 l 68.79465,0 c 6.91347,0 12.58024,5.45272 12.58024,12.10503 l 0,4.25311 z"
       id="middleye"
       inkscape:connector-curvature="0"
       style="fill:#517c6d" />
    <path
       d="m 355.67495,516.07254 c 0,5.23461 -4.42009,9.37866 -9.74685,9.37866 l -22.3271,0 c -5.44009,0 -9.74684,-4.25311 -9.74684,-9.37866 l 0,0 c 0,-5.2346 4.42008,-9.37866 9.74684,-9.37866 l 22.3271,0 c 5.44011,-0.10899 9.74685,4.14406 9.74685,9.37866 l 0,0 z"
       id="lltwo"
       inkscape:connector-curvature="0"
       style="fill:#e6c05c" />
    <path
       d="m 335.27457,553.15097 c 12.46689,0 22.44041,7.85192 22.44041,19.84787 l -44.99418,0 c 0.1133,-11.99595 10.08686,-19.84787 22.55377,-19.84787 z"
       id="llthree"
       inkscape:connector-curvature="0"
       style="fill:#c65044" />
    <rect
       height="83.862701"
       width="28.220537"
       y="478.77603"
       x="396.13571"
       id="rlone"
       style="fill:#537e70" />
    <path
       d="m 430.81639,516.07254 c 0,5.23461 -4.42009,9.37866 -9.74687,9.37866 l -22.32709,0 c -5.4401,0 -9.74684,-4.25311 -9.74684,-9.37866 l 0,0 c 0,-5.2346 4.42008,-9.37866 9.74684,-9.37866 l 22.32709,0 c 5.44011,-0.10899 9.74687,4.14406 9.74687,9.37866 l 0,0 z"
       id="rltwo"
       inkscape:connector-curvature="0"
       style="fill:#e6c05c" />
    <path
       d="m 410.41599,553.15097 c 12.46691,0 22.44043,7.85192 22.44043,19.84787 l -44.9942,0 c 0.1133,-11.99595 10.08686,-19.84787 22.55377,-19.84787 z"
       id="rlthree"
       inkscape:connector-curvature="0"
       style="fill:#c65044" />
    <ellipse
       cy="323.04657"
       cx="340.60135"
       id="leone"
       style="fill:#e8c761"
       rx="10.653536"
       ry="10.251097" />
    <ellipse
       cy="323.15558"
       cx="340.94135"
       id="letwo"
       style="fill:#b84e47"
       rx="8.0468206"
       ry="7.7428498" />
    <ellipse
       cy="322.9375"
       cx="341.05466"
       id="lethree"
       style="fill:#402b25"
       rx="3.1733937"
       ry="3.0535185" />
    <ellipse
       cy="322.39221"
       cx="343.88803"
       id="lefour"
       style="fill:#fffdfc"
       rx="2.1533744"
       ry="2.0720305" />
    <path
       d="m 378.34204,323.04656 c 0,-10.68731 8.95351,-19.3026 20.06039,-19.3026 11.10688,0 20.06038,8.61529 20.06038,19.3026 0,10.6873 -8.9535,19.30259 -20.06038,19.30259 -10.99355,0 -20.06039,-8.61529 -20.06039,-19.30259 z"
       id="reone"
       inkscape:connector-curvature="0"
       style="fill:#e8c761" />
    <path
       d="m 383.89549,323.26467 c 0,-8.07002 6.80013,-14.61328 15.18695,-14.61328 8.38682,0 15.18696,6.54326 15.18696,14.61328 0,8.07001 -6.80014,14.61325 -15.18696,14.61325 -8.38682,0 -15.18695,-6.54324 -15.18695,-14.61325 z"
       id="retwo"
       inkscape:connector-curvature="0"
       style="fill:#b84e47" />
    <ellipse
       cy="322.82843"
       cx="399.30911"
       id="rethree"
       style="fill:#402b25"
       rx="5.8934455"
       ry="5.6708202" />
    <path
       d="m 400.78248,321.73791 c 0,-2.07203 1.81337,-3.8169 3.96674,-3.8169 2.15337,0 3.96674,1.74487 3.96674,3.8169 0,2.07203 -1.81337,3.8169 -3.96674,3.8169 -2.15337,0 -3.96674,-1.74487 -3.96674,-3.8169 z"
       id="refour"
       inkscape:connector-curvature="0"
       style="fill:#fffdfc" />
    <rect
       height="8.615284"
       width="8.9535046"
       y="353.58176"
       x="335.84125"
       id="mone"
       style="fill:#e8c761" />
    <rect
       height="8.615284"
       width="8.9535046"
       y="353.58176"
       x="350.46152"
       id="mtwo"
       style="fill:#e8c761" />
    <rect
       height="8.615284"
       width="8.9535046"
       y="353.58176"
       x="365.08179"
       id="mthree"
       style="fill:#e8c761" />
    <rect
       height="8.615284"
       width="8.9535046"
       y="353.58176"
       x="379.81543"
       id="mfour"
       style="fill:#e8c761" />
    <rect
       height="8.615284"
       width="8.9535046"
       y="353.58176"
       x="394.43564"
       id="mfive"
       style="fill:#e8c761" />
    <path
       d="m 453.03014,375.39258 c 0,-2.6173 2.15337,-4.68932 4.87343,-4.68932 l 0,0 c 2.72004,0 4.87342,2.07202 4.87342,4.68932 l 0,27.59073 c 0,2.6173 -2.15338,4.68932 -4.87342,4.68932 l 0,0 c -2.72006,0 -4.87343,-2.07202 -4.87343,-4.68932 l 0,-27.59073 z"
       id="rtwo"
       inkscape:connector-curvature="0"
       style="fill:#d58455" />
    <path
       d="m 453.03014,325.77291 c 0,-2.6173 2.15337,-4.68933 4.87343,-4.68933 l 0,0 c 2.72004,0 4.87342,2.07203 4.87342,4.68933 l 0,27.59073 c 0,2.6173 -2.15338,4.68932 -4.87342,4.68932 l 0,0 c -2.72006,0 -4.87343,-2.07202 -4.87343,-4.68932 l 0,-27.59073 z"
       id="rfour"
       inkscape:connector-curvature="0"
       style="fill:#d58455" />
    <ellipse
       cy="365.03244"
       cx="458.58359"
       id="rthree"
       style="fill:#463023"
       rx="6.8001289"
       ry="6.5432534" />
    <path
       d="m 468.5571,319.55683 c 0,0 0.22667,14.83138 -9.18017,14.83138 -9.40685,0 -11.7869,-7.08853 -11.7869,-16.4672 0,0 0.90668,-3.38069 3.28674,-3.38069 2.38003,0 -0.22668,6.32516 1.47335,7.96096 1.70004,1.63581 3.51341,-1.96298 3.51341,-6.32514 0,-4.47122 5.32676,-3.59879 8.95349,-3.59879 3.74008,0 3.74008,1.85392 3.74008,6.97948 z"
       id="rfive"
       inkscape:connector-curvature="0"
       style="fill:#80b0a5" />
    <path
       d="m 444.41664,392.40505 c 0,-2.50826 2.04004,-4.47122 4.64675,-4.47122 l 0,0 c 2.60672,0 4.64675,1.96296 4.64675,4.47122 l 0,12.32312 c 0,2.50824 -2.15337,4.47124 -4.64675,4.47124 l 0,0 c -2.60671,0 -4.64675,-1.963 -4.64675,-4.47124 l 0,-12.32312 z"
       id="rone"
       inkscape:connector-curvature="0"
       style="fill:#c85449" />
  </g>
</svg>
