<?xml version="1.0" encoding="UTF-8" standalone="no"?>
<svg
   xmlns:dc="http://purl.org/dc/elements/1.1/"
   xmlns:cc="http://creativecommons.org/ns#"
   xmlns:rdf="http://www.w3.org/1999/02/22-rdf-syntax-ns#"
   xmlns:svg="http://www.w3.org/2000/svg"
   xmlns="http://www.w3.org/2000/svg"
   xmlns:sodipodi="http://sodipodi.sourceforge.net/DTD/sodipodi-0.dtd"
   xmlns:inkscape="http://www.inkscape.org/namespaces/inkscape"
   height="32px"
   version="1.1"
   viewBox="0 0 32 32"
   width="32px"
   id="svg3342"
   inkscape:version="0.91 r13725"
   sodipodi:docname="wheel.svg">
  <metadata
     id="metadata3353">
    <rdf:RDF>
      <cc:Work
         rdf:about="">
        <dc:format>image/svg+xml</dc:format>
        <dc:type
           rdf:resource="http://purl.org/dc/dcmitype/StillImage" />
        <dc:title></dc:title>
      </cc:Work>
    </rdf:RDF>
  </metadata>
  <sodipodi:namedview
     pagecolor="#ffffff"
     bordercolor="#666666"
     borderopacity="1"
     objecttolerance="10"
     gridtolerance="10"
     guidetolerance="10"
     inkscape:pageopacity="0"
     inkscape:pageshadow="2"
     inkscape:window-width="1366"
     inkscape:window-height="715"
     id="namedview3351"
     showgrid="false"
     inkscape:zoom="14.75"
     inkscape:cx="15.617111"
     inkscape:cy="14.507447"
     inkscape:window-x="-8"
     inkscape:window-y="-8"
     inkscape:window-maximized="1"
     inkscape:current-layer="svg3342" />
  <defs
     id="defs3346" />
  <path
     id="base"
     style="fill:#ff0000;fill-rule:evenodd;stroke:#000000;stroke-width:1px;stroke-linecap:butt;stroke-linejoin:miter;stroke-opacity:1"
     d="m 17.694915,7.1525426 a 2.3728814,2.2711864 0 0 1 -2.372881,2.2711863 2.3728814,2.2711864 0 0 1 -2.372882,-2.2711863 2.3728814,2.2711864 0 0 1 2.372882,-2.2711864 2.3728814,2.2711864 0 0 1 2.372881,2.2711864 z m -4.135593,7.0169494 3.864407,0 0,17.355932 -3.864407,0 z" />
  <path
     id="sails"
     style="fill:#ff0000;fill-rule:evenodd;stroke:#000000;stroke-width:1px;stroke-linecap:butt;stroke-linejoin:miter;stroke-opacity:1"
     d="M 25.79661,5.5593224 A 3.1525424,3.2542372 0 0 1 22.644068,8.8135595 3.1525424,3.2542372 0 0 1 19.491525,5.5593224 3.1525424,3.2542372 0 0 1 22.644068,2.3050852 3.1525424,3.2542372 0 0 1 25.79661,5.5593224 Z M 18.61017,15.18644 a 3.1525424,3.2542372 0 0 1 -3.152543,3.254238 3.1525424,3.2542372 0 0 1 -3.152542,-3.254238 3.1525424,3.2542372 0 0 1 3.152542,-3.254237 3.1525424,3.2542372 0 0 1 3.152543,3.254237 z M 10.847458,5.8305082 A 3.1525424,3.2542372 0 0 1 7.6949153,9.0847454 3.1525424,3.2542372 0 0 1 4.5423729,5.8305082 3.1525424,3.2542372 0 0 1 7.6949153,2.5762711 3.1525424,3.2542372 0 0 1 10.847458,5.8305082 Z" />
</svg>
