<?xml version="1.0" encoding="UTF-8" standalone="no"?>
<!-- Created with Inkscape (http://www.inkscape.org/) -->

<svg
   xmlns:dc="http://purl.org/dc/elements/1.1/"
   xmlns:cc="http://creativecommons.org/ns#"
   xmlns:rdf="http://www.w3.org/1999/02/22-rdf-syntax-ns#"
   xmlns:svg="http://www.w3.org/2000/svg"
   xmlns="http://www.w3.org/2000/svg"
   xmlns:sodipodi="http://sodipodi.sourceforge.net/DTD/sodipodi-0.dtd"
   xmlns:inkscape="http://www.inkscape.org/namespaces/inkscape"
   width="210mm"
   height="297mm"
   viewBox="0 0 744.09448819 1052.3622047"
   id="svg2"
   version="1.1"
   inkscape:version="0.91 r13725"
   sodipodi:docname="robot.svg">
  <defs
     id="defs4">
		
		
	</defs>
  <sodipodi:namedview
     id="base"
     pagecolor="#ffffff"
     bordercolor="#666666"
     borderopacity="1.0"
     inkscape:pageopacity="0.0"
     inkscape:pageshadow="2"
     inkscape:zoom="0.35"
     inkscape:cx="45"
     inkscape:cy="631.42857"
     inkscape:document-units="px"
     inkscape:current-layer="layer1"
     showgrid="false"
     inkscape:window-width="1366"
     inkscape:window-height="715"
     inkscape:window-x="-8"
     inkscape:window-y="-8"
     inkscape:window-maximized="1" />
  <metadata
     id="metadata7">
    <rdf:RDF>
      <cc:Work
         rdf:about="">
        <dc:format>image/svg+xml</dc:format>
        <dc:type
           rdf:resource="http://purl.org/dc/dcmitype/StillImage" />
        <dc:title></dc:title>
      </cc:Work>
    </rdf:RDF>
  </metadata>
  <g
     inkscape:label="Layer 1"
     inkscape:groupmode="layer"
     id="layer1">
    <path
       d="m 427.92004,32.218521 c -21.89248,-2.790522 -41.79473,6.51122 -53.07266,21.704066 -11.27794,-15.192846 -31.5119,-24.494588 -53.40437,-21.394007 -24.2144,3.410638 -43.45325,22.324182 -46.10688,44.958422 -3.64874,31.005808 22.55588,57.050688 54.73118,57.050688 1.32683,0 2.65364,0 3.98045,-0.31006 l 29.85338,0 0.3317,53.01993 24.2144,0 -0.3317,-53.01993 28.52655,0 c 1.32683,0 2.65364,0.31006 3.98045,0.31006 32.50701,-0.31006 58.04823,-26.665 54.06778,-57.360747 C 471.70498,54.232646 452.13443,35.62916 427.92004,32.218521 Z M 299.55053,88.649094 c -3.64874,-19.533661 14.26328,-36.586855 35.49235,-33.486274 12.60475,1.860348 23.21929,11.472148 25.20952,23.254355 3.64874,19.533657 -14.26328,36.586855 -35.49235,33.486265 C 312.15529,110.0431 301.54076,100.4313 299.55053,88.649094 Z M 425.2664,111.59339 c -20.89736,3.41064 -39.14109,-13.332501 -35.82404,-33.176215 1.99022,-11.782207 12.27305,-21.704065 24.8778,-23.564413 20.89736,-3.41064 39.1411,13.332497 35.82406,33.176216 -1.65853,11.78221 -11.94135,21.394002 -24.87782,23.564412 z"
       id="toptwo"
       inkscape:connector-curvature="0"
       style="fill:#517c6b" />
    <path
       d="m 591.11848,693.57241 c 0,18.91353 -16.58521,34.41645 -36.81917,34.41645 l -356.91365,0 c -20.23396,0 -36.81916,-15.50292 -36.81916,-34.41645 l 0,-195.33659 c 0,-18.91355 16.5852,-34.41645 36.81916,-34.41645 l 356.91365,0 c 20.23396,0 36.81917,15.5029 36.81917,34.41645 l 0,195.33659 z"
       id="body"
       inkscape:connector-curvature="0"
       style="fill:#7aaf96" />
    <ellipse
       ry="23.874472"
       rx="34.165527"
       cy="202.44041"
       cx="374.18396"
       id="topone"
       style="fill:#517c6b" />
    <path
       d="m 134.03017,585.05208 c 0,7.44139 -6.30238,13.33249 -14.26328,13.33249 l 0,0 c -7.9609,0 -14.26328,-5.8911 -14.26328,-13.33249 l 0,-78.4447 c 0,-7.44139 6.30238,-13.3325 14.26328,-13.3325 l 0,0 c 7.9609,0 14.26328,5.89111 14.26328,13.3325 l 0,78.4447 z"
       id="lhtwo"
       inkscape:connector-curvature="0"
       style="fill:#d58455" />
    <path
       d="m 134.03017,725.81844 c 0,7.4414 -6.30238,13.3325 -14.26328,13.3325 l 0,0 c -7.9609,0 -14.26328,-5.8911 -14.26328,-13.3325 l 0,-78.44468 c 0,-7.44141 6.30238,-13.3325 14.26328,-13.3325 l 0,0 c 7.9609,0 14.26328,5.89109 14.26328,13.3325 l 0,78.44468 z"
       id="lhfour"
       inkscape:connector-curvature="0"
       style="fill:#d58455" />
    <ellipse
       cy="614.50757"
       cx="117.7767"
       id="lhthree"
       style="fill:#463023"
       rx="19.902248"
       ry="18.603483" />
    <path
       d="m 88.586702,743.80181 c 0,0 -0.663413,-42.16789 26.868028,-42.16789 27.53145,0 34.49723,20.15377 34.49723,46.81877 0,0 -2.65362,9.61179 -9.61942,9.61179 -6.96578,0 0.66341,-17.98336 -4.31216,-22.63423 -4.97555,-4.65088 -10.28282,5.58104 -10.28282,17.98337 0,12.71238 -15.59009,10.23191 -26.20462,10.23191 -10.614538,0 -10.946238,-5.27099 -10.946238,-19.84372 z"
       id="lhfive"
       inkscape:connector-curvature="0"
       style="fill:#80b0a5" />
    <path
       d="m 159.57139,536.68302 c 0,7.13134 -5.97068,12.71238 -13.59988,12.71238 l 0,0 c -7.62919,0 -13.59987,-5.58104 -13.59987,-12.71238 l 0,-35.03657 c 0,-7.13133 6.30238,-12.71237 13.59987,-12.71237 l 0,0 c 7.6292,0 13.59988,5.89109 13.59988,12.71237 l 0,35.03657 z"
       id="lhone"
       inkscape:connector-curvature="0"
       style="fill:#c85449" />
    <rect
       height="245.56598"
       width="358.57217"
       y="198.71968"
       x="191.41496"
       id="head"
       style="fill:#7aaf96" />
    <g
       id="meter"
       transform="matrix(3.3170414,0,0,3.1005808,-922.77923,-332.71984)">
			<path
   id="path3351"
   d="m 367.7,300.5 c -0.1,-0.2 -2.2,-2.8 -0.6,-6 l 0.2,-0.5 c 1.9,-3.9 6.3,-13.1 22.2,-13.3 l 0.4,0 c 15.9,0.1 20.3,9.3 22.2,13.3 l 0.2,0.5 c 1.6,3.2 -0.5,5.8 -0.6,5.9 l -7.8,11.1 -14.3,0 -14.3,0 -7.6,-11 z"
   inkscape:connector-curvature="0"
   style="fill:#533726" />

			<path
   id="path3353"
   d="m 389.7,281.7 0.2,0 c 15.2,0.1 19.3,8.6 21.3,12.7 l 0.2,0.5 c 1.3,2.6 -0.4,4.8 -0.4,4.9 l 0,0.1 0,0.1 -7.4,10.7 -13.8,0 -13.8,0 -7.4,-10.7 0,-0.1 0,-0.1 c 0,0 -1.7,-2.2 -0.4,-4.9 l 0.2,-0.5 c 2,-4.1 6.1,-12.6 21.3,-12.7 l 0,0 m 0.2,-2 c -0.1,0 -0.1,0 -0.2,0 -0.1,0 -0.1,0 -0.2,0 l 0,0 c -17.2,0.2 -21.5,10.6 -23.3,14.3 -1.9,3.8 0.7,7 0.7,7 l 8,11.5 14.8,0 14.8,0 8,-11.5 c 0,0 2.6,-3.2 0.7,-7 -1.8,-3.7 -6.1,-14.1 -23.3,-14.3 l 0,0 0,0 z"
   inkscape:connector-curvature="0"
   style="fill:#e7c264" />

		</g>
    <polyline
       points="385.6,309.7 381.8,295.3 393.3,309.8   "
       id="needle"
       style="fill:#e7c264"
       transform="matrix(3.3170414,0,0,3.1005808,-922.77923,-332.71984)" />
    <rect
       height="238.43468"
       width="82.59433"
       y="742.25159"
       x="225.24883"
       id="llone"
       style="fill:#537e70" />
    <path
       d="m 507.19733,304.13946 c 0,18.91354 -16.58521,34.41645 -36.81916,34.41645 l -201.34442,0 c -20.23395,0 -36.81916,-15.50291 -36.81916,-34.41645 l 0,-12.09226 c 0,-18.91355 16.58521,-34.41646 36.81916,-34.41646 l 201.34442,0 c 20.23395,0 36.81916,15.50291 36.81916,34.41646 l 0,12.09226 z"
       id="middleye"
       inkscape:connector-curvature="0"
       style="fill:#517c6d" />
    <path
       d="m 326.75027,848.29139 c 0,14.88278 -12.93646,26.66499 -28.52655,26.66499 l -65.34572,0 c -15.9218,0 -28.52656,-12.09226 -28.52656,-26.66499 l 0,0 c 0,-14.88279 12.93647,-26.665 28.52656,-26.665 l 65.34572,0 c 15.92179,-0.31005 28.52655,11.78221 28.52655,26.665 l 0,0 z"
       id="lltwo"
       inkscape:connector-curvature="0"
       style="fill:#e6c05c" />
    <path
       d="m 267.04353,953.71113 c 36.48745,0 65.67742,22.32418 65.67742,56.43057 l -131.68655,0 c 0.3317,-34.10639 29.52167,-56.43057 66.00913,-56.43057 z"
       id="llthree"
       inkscape:connector-curvature="0"
       style="fill:#c65044" />
    <rect
       height="238.43468"
       width="82.59433"
       y="742.25159"
       x="445.16864"
       id="rlone"
       style="fill:#537e70" />
    <path
       d="m 546.67012,848.29139 c 0,14.88278 -12.93646,26.66499 -28.52656,26.66499 l -65.34571,0 c -15.9218,0 -28.52656,-12.09226 -28.52656,-26.66499 l 0,0 c 0,-14.88279 12.93646,-26.665 28.52656,-26.665 l 65.34571,0 c 15.9218,-0.31005 28.52656,11.78221 28.52656,26.665 l 0,0 z"
       id="rltwo"
       inkscape:connector-curvature="0"
       style="fill:#e6c05c" />
    <path
       d="m 486.96338,953.71113 c 36.48745,0 65.67741,22.32418 65.67741,56.43057 l -131.68654,0 c 0.33171,-34.10639 29.52167,-56.43057 66.00913,-56.43057 z"
       id="rlthree"
       inkscape:connector-curvature="0"
       style="fill:#c65044" />
    <ellipse
       cy="299.48859"
       cx="282.63361"
       id="leone"
       style="fill:#e8c761"
       rx="31.180187"
       ry="29.145458" />
    <ellipse
       cy="299.79865"
       cx="283.62875"
       id="letwo"
       style="fill:#b84e47"
       rx="23.550995"
       ry="22.014122" />
    <ellipse
       cy="299.17856"
       cx="283.96039"
       id="lethree"
       style="fill:#402b25"
       rx="9.2877159"
       ry="8.6816263" />
    <ellipse
       cy="297.62827"
       cx="292.25299"
       id="lefour"
       style="fill:#fffdfc"
       rx="6.3023787"
       ry="5.8911037" />
    <path
       d="m 393.0911,299.48859 c 0,-30.3857 26.20463,-54.88028 58.71163,-54.88028 32.507,0 58.71164,24.49458 58.71164,54.88028 0,30.38568 -26.20464,54.88028 -58.71164,54.88028 -32.1753,0 -58.71163,-24.4946 -58.71163,-54.88028 z"
       id="reone"
       inkscape:connector-curvature="0"
       style="fill:#e8c761" />
    <path
       d="m 409.34461,300.1087 c 0,-22.9443 19.90224,-41.54778 44.44835,-41.54778 24.5461,0 44.44835,18.60348 44.44835,41.54778 0,22.9443 -19.90225,41.54778 -44.44835,41.54778 -24.54611,0 -44.44835,-18.60348 -44.44835,-41.54778 z"
       id="retwo"
       inkscape:connector-curvature="0"
       style="fill:#b84e47" />
    <ellipse
       cy="298.86847"
       cx="454.45639"
       id="rethree"
       style="fill:#402b25"
       rx="17.248615"
       ry="16.12302" />
    <path
       d="m 458.76852,295.76789 c 0,-5.89111 5.30727,-10.85203 11.60965,-10.85203 6.30237,0 11.60964,4.96092 11.60964,10.85203 0,5.8911 -5.30727,10.85203 -11.60964,10.85203 -6.30238,0 -11.60965,-4.96093 -11.60965,-10.85203 z"
       id="refour"
       inkscape:connector-curvature="0"
       style="fill:#fffdfc" />
    <rect
       height="24.494589"
       width="26.204628"
       y="386.30484"
       x="268.70209"
       id="mone"
       style="fill:#e8c761" />
    <rect
       height="24.494589"
       width="26.204628"
       y="386.30484"
       x="311.49191"
       id="mtwo"
       style="fill:#e8c761" />
    <rect
       height="24.494589"
       width="26.204628"
       y="386.30484"
       x="354.28171"
       id="mthree"
       style="fill:#e8c761" />
    <rect
       height="24.494589"
       width="26.204628"
       y="386.30484"
       x="397.40326"
       id="mfour"
       style="fill:#e8c761" />
    <rect
       height="24.494589"
       width="26.204628"
       y="386.30484"
       x="440.19305"
       id="mfive"
       style="fill:#e8c761" />
    <path
       d="m 611.68413,448.31646 c 0,-7.44139 6.30238,-13.3325 14.26328,-13.3325 l 0,0 c 7.96089,0 14.26328,5.89111 14.26328,13.3325 l 0,78.4447 c 0,7.44139 -6.30239,13.33249 -14.26328,13.33249 l 0,0 c -7.9609,0 -14.26328,-5.8911 -14.26328,-13.33249 l 0,-78.4447 z"
       id="rtwo"
       inkscape:connector-curvature="0"
       style="fill:#d58455" />
    <path
       d="m 611.68413,307.24004 c 0,-7.44139 6.30238,-13.3325 14.26328,-13.3325 l 0,0 c 7.96089,0 14.26328,5.89111 14.26328,13.3325 l 0,78.44469 c 0,7.4414 -6.30239,13.3325 -14.26328,13.3325 l 0,0 c -7.9609,0 -14.26328,-5.8911 -14.26328,-13.3325 l 0,-78.44469 z"
       id="rfour"
       inkscape:connector-curvature="0"
       style="fill:#d58455" />
    <ellipse
       cy="418.86096"
       cx="627.93762"
       id="rthree"
       style="fill:#463023"
       rx="19.902248"
       ry="18.603483" />
    <path
       d="m 657.1276,289.56673 c 0,0 0.66341,42.1679 -26.86804,42.1679 -27.53144,0 -34.49723,-20.15377 -34.49723,-46.81877 0,0 2.65363,-9.6118 9.61942,-9.6118 6.96579,0 -0.66341,17.98337 4.31215,22.63424 4.97557,4.65086 10.28284,-5.58105 10.28284,-17.98337 0,-12.71238 15.59009,-10.23192 26.20462,-10.23192 10.94624,0 10.94624,5.27099 10.94624,19.84372 z"
       id="rfive"
       inkscape:connector-curvature="0"
       style="fill:#80b0a5" />
    <path
       d="m 586.47461,496.68553 c 0,-7.13134 5.97068,-12.71238 13.59988,-12.71238 l 0,0 c 7.62919,0 13.59986,5.58104 13.59986,12.71238 l 0,35.03656 c 0,7.13133 -6.30238,12.71238 -13.59986,12.71238 l 0,0 c -7.6292,0 -13.59988,-5.58105 -13.59988,-12.71238 l 0,-35.03656 z"
       id="rone"
       inkscape:connector-curvature="0"
       style="fill:#c85449" />
  </g>
</svg>
